name D:\school\WTK\thesis\model\3dpredictsim\Results\debug_batch\Pog_s1_tmt_aCst_d00_k500_ig24_act_TTC.mot
datacolumns 128
datarows 4
range 1.37881701 1.42018152
endheader
time	pelvis_tilt	pelvis_list	pelvis_rotation	pelvis_tx	pelvis_ty	pelvis_tz	hip_flexion_l	hip_adduction_l	hip_rotation_l	hip_flexion_r	hip_adduction_r	hip_rotation_r	knee_angle_l	knee_angle_r	ankle_angle_l	ankle_angle_r	subtalar_angle_l	subtalar_angle_r	tmt_angle_l	tmt_angle_r	mtp_angle_l	mtp_angle_r	lumbar_extension	lumbar_bending	lumbar_rotation	arm_flex_l	arm_add_l	arm_rot_l	arm_flex_r	arm_add_r	arm_rot_r	elbow_flex_l	elbow_flex_r	pro_sup_l	pro_sup_r	glut_med1_l/activation	glut_med2_l/activation	glut_med3_l/activation	glut_min1_l/activation	glut_min2_l/activation	glut_min3_l/activation	semimem_l/activation	semiten_l/activation	bifemlh_l/activation	bifemsh_l/activation	sar_l/activation	add_long_l/activation	add_brev_l/activation	add_mag1_l/activation	add_mag2_l/activation	add_mag3_l/activation	tfl_l/activation	pect_l/activation	grac_l/activation	glut_max1_l/activation	glut_max2_l/activation	glut_max3_l/activation	iliacus_l/activation	psoas_l/activation	quad_fem_l/activation	gem_l/activation	peri_l/activation	rect_fem_l/activation	vas_med_l/activation	vas_int_l/activation	vas_lat_l/activation	med_gas_l/activation	lat_gas_l/activation	soleus_l/activation	tib_post_l/activation	flex_dig_l/activation	flex_hal_l/activation	tib_ant_l/activation	per_brev_l/activation	per_long_l/activation	per_tert_l/activation	ext_dig_l/activation	ext_hal_l/activation	ercspn_l/activation	intobl_l/activation	extobl_l/activation	glut_med1_r/activation	glut_med2_r/activation	glut_med3_r/activation	glut_min1_r/activation	glut_min2_r/activation	glut_min3_r/activation	semimem_r/activation	semiten_r/activation	bifemlh_r/activation	bifemsh_r/activation	sar_r/activation	add_long_r/activation	add_brev_r/activation	add_mag1_r/activation	add_mag2_r/activation	add_mag3_r/activation	tfl_r/activation	pect_r/activation	grac_r/activation	glut_max1_r/activation	glut_max2_r/activation	glut_max3_r/activation	iliacus_r/activation	psoas_r/activation	quad_fem_r/activation	gem_r/activation	peri_r/activation	rect_fem_r/activation	vas_med_r/activation	vas_int_r/activation	vas_lat_r/activation	med_gas_r/activation	lat_gas_r/activation	soleus_r/activation	tib_post_r/activation	flex_dig_r/activation	flex_hal_r/activation	tib_ant_r/activation	per_brev_r/activation	per_long_r/activation	per_tert_r/activation	ext_dig_r/activation	ext_hal_r/activation	ercspn_r/activation	intobl_r/activation	extobl_r/activation	
          1.37881701	         -2.92930187	         -1.61553560	         10.35693644	          1.72352126	          0.84594200	         -0.00292206	        -17.90242141	         -4.74356423	          6.53867377	         34.81235618	          0.42640480	          0.16038901	        -18.49078280	        -15.63060312	        -17.64516070	         10.00779095	         18.22939748	         -3.65049879	          1.54691709	          0.07117977	         34.05753031	         -0.06303538	          0.79720352	         -1.03977764	         -4.63729024	          1.61216604	        -13.70384600	         17.68444869	        -15.24893631	        -13.90107684	         13.20370666	         52.34627890	         17.40364371	         86.51662706	         86.51662706	          0.10436463	          0.06812825	          0.07562007	          0.15366193	          0.11086395	          0.07561107	          0.05741196	          0.06149034	          0.06149722	          0.05000188	          0.05774438	          0.19150886	          0.23887156	          0.22847677	          0.11750225	          0.10546357	          0.15046231	          0.05005582	          0.07195738	          0.05001662	          0.05003575	          0.07562026	          0.28958579	          0.50164103	          0.07562233	          0.07561627	          0.07781101	          0.28571514	          0.05000113	          0.05000156	          0.05000870	          0.12324866	          0.18380796	          0.05000006	          0.12205877	          0.16812406	          0.16640362	          0.33076126	          0.58564993	          0.39853921	          0.74208398	          0.64006634	          0.18590392	          0.05000021	          0.07562056	          0.06484120	          0.11270571	          0.05001326	          0.05000029	          0.07069964	          0.05753607	          0.05000418	          0.15083875	          0.07634387	          0.09666333	          0.06492649	          0.05000076	          0.05000164	          0.07765808	          0.25411030	          0.21259373	          0.15039449	          0.06148934	          0.05000662	          0.13081471	          0.05000077	          0.17007674	          0.14821208	          0.05643468	          0.05600956	          0.28923792	          0.05000124	          0.15271175	          0.06149058	          0.22706941	          0.22015161	          0.19691602	          0.06559836	          0.05000123	          0.05000010	          0.06459808	          0.07561919	          0.07561210	          0.64984512	          0.43453231	          0.26694829	          0.54603010	          0.70413858	          0.51623007	          0.05000003	          0.13235110	          0.09835756	
          1.39260518	         -2.92324226	         -1.57535085	         10.52565350	          1.74696964	          0.84349515	         -0.00238603	        -17.59006290	         -4.97709501	          6.15842555	         33.91994940	          0.74071959	          0.33831506	        -20.78329005	        -16.45398322	        -20.57130899	          8.93582531	         17.99865996	         -4.00198647	          1.05117850	         -0.10102891	         33.15550529	         -0.14563346	          1.08853583	         -0.82360894	         -4.77268368	          0.89463522	        -13.82221401	         17.89320193	        -17.07028438	        -13.89710002	         13.40417046	         53.68641650	         17.28838613	         86.51662706	         86.51662706	          0.08486358	          0.06149010	          0.06149029	          0.12494874	          0.09014845	          0.06149166	          0.10213710	          0.05000082	          0.05000610	          0.05000025	          0.05000232	          0.15648983	          0.20191724	          0.18578359	          0.09554629	          0.08575676	          0.14658166	          0.08143759	          0.06148995	          0.05023013	          0.06148116	          0.06149084	          0.23547365	          0.47819933	          0.06149253	          0.06149118	          0.06327124	          0.23232605	          0.09299524	          0.08817727	          0.06779799	          0.10021825	          0.14946136	          0.08881306	          0.09925069	          0.13670821	          0.13530923	          0.33114594	          0.49562835	          0.33778499	          0.86561309	          0.81245745	          0.15116573	          0.09964240	          0.06149002	          0.05272491	          0.23433454	          0.32823550	          0.50500483	          0.05833602	          0.05000131	          0.39193430	          0.13894080	          0.06207838	          0.11699689	          0.05279464	          0.06148870	          0.07562021	          0.14789983	          0.21136199	          0.21247082	          0.19263846	          0.05000046	          0.06150332	          0.14071201	          0.25905867	          0.23707973	          0.20318949	          0.06149024	          0.05962940	          0.23519080	          0.15502568	          0.37177940	          0.05000046	          0.18463896	          0.17901383	          0.16012006	          0.05935206	          0.06148932	          0.06102293	          0.06149002	          0.06148987	          0.06149012	          0.57923368	          0.39962396	          0.21706635	          0.44400236	          0.76201356	          0.60075380	          0.07058859	          0.10943795	          0.07997833	
          1.40639335	         -2.91280477	         -1.53357120	         10.64281424	          1.77006573	          0.84082335	         -0.00182931	        -16.98637031	         -5.18324963	          5.78652268	         33.00249599	          1.07026009	          0.53986960	        -23.61651353	        -17.45827167	        -22.59727804	          7.98966890	         17.60646055	         -4.38516328	          0.67159697	         -0.04683705	         29.61362354	         -0.14901783	          1.33949668	         -0.59212933	         -4.88246034	          0.21852139	        -13.92259550	         18.03292678	        -18.70371908	        -13.88101670	         13.77775199	         54.87460944	         16.95595157	         86.51662706	         86.51662706	          0.07562173	          0.05000040	          0.05000023	          0.11436921	          0.07330415	          0.05000241	          0.15049716	          0.05000014	          0.05000028	          0.05000018	          0.05009322	          0.15852430	          0.16418693	          0.15106819	          0.07769290	          0.06973252	          0.11919312	          0.06622132	          0.05000050	          0.05000213	          0.05000124	          0.05000108	          0.19147303	          0.43427034	          0.05000201	          0.05000191	          0.05144900	          0.19953956	          0.07562073	          0.07561885	          0.06149042	          0.08149135	          0.12153284	          0.07221737	          0.08070458	          0.11116280	          0.11002520	          0.35840169	          0.49560198	          0.33047532	          0.74885971	          0.90228131	          0.50461231	          0.14231482	          0.05000002	          0.05000007	          0.38094969	          0.51392759	          0.59117535	          0.05058653	          0.29373566	          0.31870199	          0.11297813	          0.11409059	          0.09513475	          0.06149099	          0.05000073	          0.06148979	          0.12026312	          0.17186784	          0.26103158	          0.21206933	          0.05000037	          0.05001135	          0.11442072	          0.35863646	          0.29823847	          0.24545347	          0.05000017	          0.05000011	          0.30555266	          0.12605771	          0.30230865	          0.05000005	          0.22577365	          0.25962155	          0.22321067	          0.05000002	          0.05000004	          0.05000000	          0.05000001	          0.05000034	          0.05000023	          0.78075966	          0.46652430	          0.22692409	          0.71029882	          0.87599763	          0.65864177	          0.07557135	          0.08898825	          0.06503347	
          1.42018152	         -2.89993296	         -1.50374727	         10.69844296	          1.79231246	          0.83847464	         -0.00119179	        -16.03748578	         -5.37071459	          5.45030545	         32.35673458	          1.42672595	          0.70276746	        -26.90353207	        -18.77454111	        -23.80633865	          6.81751703	         17.13516985	         -4.80588607	          0.19181260	         -0.05870206	         23.62011703	         -0.27059500	          1.51753851	         -0.33582074	         -4.96823782	         -0.32186091	        -13.97215406	         18.11968197	        -20.02473800	        -13.83884690	         14.34807555	         55.76981202	         16.35375669	         86.51662706	         86.51662706	          0.06149127	          0.06148604	          0.06148865	          0.09299830	          0.05960717	          0.05000089	          0.23499829	          0.06149059	          0.10610283	          0.05000041	          0.05000109	          0.23463751	          0.17161779	          0.34041381	          0.11804864	          0.06677253	          0.09692089	          0.05706443	          0.05014484	          0.05016483	          0.06148978	          0.07561863	          0.15569424	          0.38551772	          0.09203295	          0.05001000	          0.05000047	          0.16225331	          0.06149017	          0.06148864	          0.05000025	          0.06626379	          0.09882310	          0.06149028	          0.06562402	          0.09039087	          0.08946578	          0.57175078	          0.40299324	          0.26872241	          0.60892685	          0.75621649	          0.41031976	          0.16477799	          0.05000002	          0.05000006	          0.48135014	          0.66986196	          0.74863054	          0.05001635	          0.32389369	          0.45369454	          0.09186690	          0.09277171	          0.07735782	          0.05000077	          0.05000024	          0.05000038	          0.09779078	          0.21983501	          0.25445807	          0.20901906	          0.05000072	          0.05000209	          0.09304036	          0.43470323	          0.35101881	          0.26985476	          0.05000007	          0.05000008	          0.29175116	          0.10250297	          0.29146328	          0.05000019	          0.45354422	          0.45061241	          0.39277634	          0.05000005	          0.05000016	          0.05000002	          0.16374272	          0.13977781	          0.11448504	          0.88576537	          0.37934888	          0.18452072	          0.57757139	          0.73103655	          0.72573580	          0.09662634	          0.07235979	          0.05288124	
